<!--?xml version="1.0" standalone="no"?-->
              <svg id="sw-js-blob-svg" viewBox="0 0 100 100" xmlns="http://www.w3.org/2000/svg" version="1.1">
                    <defs> 
                        <linearGradient id="sw-gradient" x1="0" x2="1" y1="1" y2="0">
                            <stop id="stop1" stop-color="rgba(248, 117, 55, 1)" offset="0%"></stop>
                            <stop id="stop2" stop-color="rgba(240.272, 166.545, 44.85, 1)" offset="100%"></stop>
                        </linearGradient>
                    </defs>
                <path fill="url(#sw-gradient)" d="M20.8,-33.7C27,-32.4,32.1,-27,35.4,-20.6C38.6,-14.3,40,-7.2,38.3,-1C36.5,5.1,31.6,10.3,27.9,15.8C24.1,21.3,21.6,27.2,17.2,31.2C12.7,35.3,6.4,37.5,0.6,36.5C-5.2,35.5,-10.4,31.3,-15.4,27.6C-20.4,23.8,-25.1,20.5,-28,16C-30.8,11.5,-31.9,5.7,-33.7,-1C-35.4,-7.7,-37.8,-15.5,-36.4,-22.5C-34.9,-29.5,-29.6,-35.8,-22.9,-36.8C-16.2,-37.8,-8.1,-33.6,-0.4,-32.9C7.3,-32.2,14.6,-35,20.8,-33.7Z" width="100%" height="100%" transform="translate(50 50)" stroke-width="0" style="transition: all 0.3s ease 0s;" stroke="url(#sw-gradient)"></path>
              </svg>